#!OML:ASF F:\VICON\USERDATA\INSTALL\rory3\rory3.ASF
:FULLY-SPECIFIED
:DEGREES
3051
root 11.0207 17.9179 4.70778 362.838 -9.62844 4.49199
lowerback 10.5459 2.09062 1.89443
upperback 1.99271 2.97301 -0.0408742
thorax -3.72934 1.44837 -1.50785
lowerneck -11.8587 1.62862 -10.4844
upperneck 44.8328 4.79168 2.87984
head 18.7365 0.532186 4.17468
rclavicle -7.95139e-015 8.74653e-015
rhumerus -24.9375 -7.29617 -81.1671
rradius 31.1924
rwrist 6.53463
rhand -15.7948 5.5076
rfingers 7.12502
rthumb 10.3981 -24.2153
lclavicle -7.95139e-015 8.74653e-015
lhumerus -37.189 9.60294 80.9943
lradius 38.2295
lwrist -4.83432
lhand -19.9994 27.7431
lfingers 7.12502
lthumb 6.34038 57.6282
rfemur -7.26726 0.945471 25.4791
rtibia 31.9425
rfoot -16.8575 -2.45782
rtoes 7.62505
lfemur -25.5066 -5.17855 -21.2228
ltibia 14.7692
lfoot 15.1261 -22.8317
ltoes 4.37354
3052
root 11.0603 17.9172 4.60125 362.735 -9.02931 4.6148
lowerback 10.7409 2.04586 1.81576
upperback 2.04505 2.90861 -0.0284671
thorax -3.78959 1.41681 -1.44952
lowerneck -11.8183 1.52995 -10.5165
upperneck 44.8216 4.60205 2.98738
head 18.7314 0.47039 4.20023
rclavicle -2.46493e-014 -3.97569e-015
rhumerus -24.3427 -7.29878 -80.9494
rradius 31.298
rwrist 6.32627
rhand -15.925 6.08045
rfingers 7.12502
rthumb 10.2725 -23.6487
lclavicle -2.46493e-014 -3.97569e-015
lhumerus -37.4024 9.20165 81.3532
lradius 37.9306
lwrist -4.06762
lhand -20.4014 26.7626
lfingers 7.12502
lthumb 5.95229 56.659
rfemur -7.73286 0.8632 25.35
rtibia 32.1368
rfoot -16.6934 -2.95309
rtoes 7.85555
lfemur -25.4361 -5.591 -21.2092
ltibia 15.4062
lfoot 13.691 -21.4799
ltoes 9.28769
3053
root 11.0994 17.932 4.49807 362.675 -8.38997 4.78143
lowerback 10.8435 1.9721 1.69982
upperback 2.09671 2.79947 -0.0225636
thorax -3.80228 1.36429 -1.36673
lowerneck -11.8127 1.42495 -10.5694
upperneck 44.8596 4.4259 3.07389
head 18.7685 0.403182 4.2258
rclavicle -1.19271e-015 -2.38542e-015
rhumerus -23.768 -7.10252 -80.7614
rradius 31.3931
rwrist 6.0017
rhand -15.9629 6.19547
rfingers 7.12502
rthumb 10.2359 -23.5355
lclavicle -1.19271e-015 -2.38542e-015
lhumerus -37.6369 8.73269 81.7978
lradius 37.6802
lwrist -2.89901
lhand -19.9901 27.8621
lfingers 7.12502
lthumb 6.34941 57.747
rfemur -8.18172 0.580739 25.1152
rtibia 32.3516
rfoot -16.623 -3.21428
rtoes 8.58736
lfemur -25.3387 -5.95972 -21.2871
ltibia 16.1873
lfoot 9.99224 -21.7339
ltoes 1.25745
3054
root 11.1361 17.9479 4.39509 362.636 -7.78193 4.92246
lowerback 10.8953 1.92221 1.5021
upperback 2.09571 2.7138 0.0148376
thorax -3.84599 1.32379 -1.20757
lowerneck -11.7113 1.34382 -10.567
upperneck 44.9761 4.25523 3.16891
head 18.8296 0.345171 4.24796
rclavicle 9.93923e-016 -1.35174e-014
rhumerus -23.2 -7.02631 -80.5396
rradius 31.3599
rwrist 5.84517
rhand -15.9817 5.64174
rfingers 7.12502
rthumb 10.2178 -24.0901
lclavicle 9.93923e-016 -1.35174e-014
lhumerus -37.9995 8.31712 82.161
lradius 37.6251
lwrist -2.63393
lhand -16.3297 32.7493
lfingers 7.12502
lthumb 9.88209 62.4974
rfemur -8.64996 0.320471 24.9113
rtibia 32.5998
rfoot -16.552 -3.52685
rtoes 8.87045
lfemur -25.172 -6.16013 -21.3872
ltibia 17.073
lfoot 4.92721 -22.1208
ltoes -13.9778
3055
root 11.1686 17.9532 4.29344 362.531 -7.23091 4.91682
lowerback 11.0477 1.87299 1.36623
upperback 2.06283 2.6401 0.107044
thorax -3.97732 1.2876 -1.03229
lowerneck -11.4924 1.29926 -10.471
upperneck 45.0693 4.16367 3.10253
head 18.8457 0.316101 4.18237
rclavicle -3.57812e-015 -7.15625e-015
rhumerus -22.6608 -6.90216 -80.3338
rradius 31.2731
rwrist 5.79364
rhand -15.9666 5.35346
rfingers 7.12502
rthumb 10.2324 -24.3777
lclavicle -3.57812e-015 -7.15625e-015
lhumerus -38.4192 8.17419 82.3406
lradius 37.5489
lwrist -3.19841
lhand -11.7483 39.0004
lfingers 7.12502
lthumb 14.2995 68.488
rfemur -9.00957 0.19433 24.8997
rtibia 32.8537
rfoot -16.4677 -3.88683
rtoes 9.39506
lfemur -24.9977 -6.59769 -21.195
ltibia 18.1501
lfoot 2.82269 -20.4817
ltoes -14.154
3056
root 11.2003 17.957 4.19558 362.436 -6.72998 4.91678
lowerback 11.1441 1.86926 1.29372
upperback 2.05631 2.62982 0.136108
thorax -4.04232 1.28284 -0.96388
lowerneck -11.2812 1.21479 -10.3416
upperneck 45.164 3.97945 3.08821
head 18.872 0.262751 4.12137
rclavicle 1.0138e-014 -1.35174e-014
rhumerus -22.1138 -6.90472 -80.1723
rradius 31.1558
rwrist 5.70761
rhand -15.8851 5.69658
rfingers 7.12502
rthumb 10.311 -24.0307
lclavicle 1.0138e-014 -1.35174e-014
lhumerus -38.7289 7.91468 82.5018
lradius 37.3531
lwrist -3.6064
lhand -12.0277 44.6441
lfingers 7.12502
lthumb 14.0303 74.1506
rfemur -9.37925 0.0112442 24.8694
rtibia 33.1396
rfoot -16.3134 -4.08025
rtoes 9.75324
lfemur -24.8237 -7.22902 -20.9262
ltibia 19.3533
lfoot 1.42321 -18.4945
ltoes -10.5872
3057
root 11.2315 17.9658 4.1004 362.352 -6.15378 5.06611
lowerback 11.1004 1.87958 1.10093
upperback 2.1239 2.61966 0.127311
thorax -3.95621 1.28144 -0.860192
lowerneck -11.1645 1.08509 -10.2912
upperneck 45.1967 3.70911 3.19197
head 18.8857 0.180545 4.11763
rclavicle -5.18828e-014 6.36111e-015
rhumerus -21.4683 -7.15619 -79.9765
rradius 31.059
rwrist 5.78612
rhand -15.9545 5.72251
rfingers 7.12502
rthumb 10.2441 -24.008
lclavicle -5.18828e-014 6.36111e-015
lhumerus -38.8496 7.37838 82.7858
lradius 37.0447
lwrist -3.91302
lhand -11.6387 44.8043
lfingers 7.12502
lthumb 14.4051 74.2844
rfemur -9.81034 -0.266566 24.6626
rtibia 33.4161
rfoot -16.004 -4.23142
rtoes 9.57016
lfemur -24.6323 -7.66259 -20.9238
ltibia 20.6481
lfoot -0.713417 -17.0088
ltoes -12.9169
3058
root 11.2623 17.9741 4.0035 362.269 -5.46614 5.17452
lowerback 11.0907 1.80951 0.886712
upperback 2.22295 2.50573 0.229141
thorax -3.8638 1.22917 -0.615643
lowerneck -11.2554 0.983224 -10.5567
upperneck 45.2555 3.5505 3.43812
head 18.9531 0.103415 4.2675
rclavicle 1.49089e-014 7.15625e-015
rhumerus -20.766 -7.32655 -79.6975
rradius 31.0928
rwrist 6.03372
rhand -15.9141 5.285
rfingers 7.12502
rthumb 10.283 -24.4436
lclavicle 1.49089e-014 7.15625e-015
lhumerus -38.8825 7.1896 83.0927
lradius 36.7588
lwrist -4.80982
lhand -10.6375 45.7101
lfingers 7.12502
lthumb 15.3697 75.1189
rfemur -10.2302 -0.468346 24.5076
rtibia 33.6306
rfoot -15.5937 -4.43311
rtoes 9.75314
lfemur -24.4946 -8.21344 -20.8619
ltibia 22.0869
lfoot -2.30926 -15.422
ltoes -14.5041
3059
root 11.2908 17.9848 3.90586 362.21 -4.83378 5.10047
lowerback 11.0871 1.76293 0.861148
upperback 2.30071 2.44468 0.322861
thorax -3.78692 1.20051 -0.493628
lowerneck -11.3791 0.855794 -10.7305
upperneck 45.3489 3.35359 3.63295
head 19.0629 0.0165824 4.37339
rclavicle 4.57205e-015 -9.54166e-015
rhumerus -20.1801 -7.62647 -79.4828
rradius 31.1736
rwrist 6.35989
rhand -15.9791 4.87504
rfingers 7.12502
rthumb 10.2203 -24.8567
lclavicle 4.57205e-015 -9.54166e-015
lhumerus -39.066 6.98094 83.3022
lradius 36.7795
lwrist -5.83818
lhand -19.4972 24.1395
lfingers 7.12502
lthumb 6.82522 54.0094
rfemur -10.6127 -0.587621 24.5576
rtibia 33.7782
rfoot -15.1627 -4.71016
rtoes 9.64489
lfemur -24.4078 -8.7199 -20.5578
ltibia 23.6435
lfoot -3.3619 -13.9795
ltoes -15.3919
3060
root 11.3144 17.9995 3.81585 362.052 -4.29971 4.90427
lowerback 11.0876 1.76898 0.93687
upperback 2.38145 2.46408 0.398893
thorax -3.70296 1.21059 -0.458201
lowerneck -11.3434 0.741569 -10.6739
upperneck 45.3884 3.15177 3.66234
head 19.1035 -0.0489458 4.34687
rclavicle -3.598e-014 7.95139e-016
rhumerus -19.7669 -8.18523 -79.3091
rradius 31.2403
rwrist 6.72725
rhand -16.061 4.89792
rfingers 7.12502
rthumb 10.1413 -24.8377
lclavicle -3.598e-014 7.95139e-016
lhumerus -39.3597 6.68187 83.4314
lradius 36.8342
lwrist -6.58488
lhand -19.0492 23.734
lfingers 7.12502
lthumb 7.25763 53.5895
rfemur -10.8112 -0.661707 24.7357
rtibia 33.9078
rfoot -14.8325 -4.99108
rtoes 9.24943
lfemur -24.1668 -8.99652 -20.1496
ltibia 25.2196
lfoot -4.0258 -12.8546
ltoes -14.7011
3061
root 11.3357 18.0092 3.72994 361.807 -3.73776 4.68648
lowerback 11.1371 1.72441 0.942824
upperback 2.47718 2.41219 0.556624
thorax -3.63787 1.18608 -0.290334
lowerneck -11.2747 0.701791 -10.651
upperneck 45.3788 3.09976 3.62131
head 19.087 -0.0663357 4.31221
rclavicle 1.66979e-014 -7.95139e-015
rhumerus -19.3879 -8.48139 -79.1276
rradius 31.3754
rwrist 6.9345
rhand -16.0796 4.89051
rfingers 7.12502
rthumb 10.1234 -24.846
lclavicle 1.66979e-014 -7.95139e-015
lhumerus -39.659 6.61487 83.5732
lradius 36.6887
lwrist -7.15526
lhand -19.5109 21.9892
lfingers 7.12502
lthumb 6.81202 51.8596
rfemur -10.8714 -0.762328 24.9378
rtibia 34.0187
rfoot -14.565 -5.28812
rtoes 9.31229
lfemur -23.7954 -9.20868 -19.7726
ltibia 26.8041
lfoot -4.64034 -11.9587
ltoes -14.221
